# xmcd
#
# Track frame offsets:
#	150
#	12082
#	26886
#	43796
#	61605
#	82245
#	96304
#	113054
#	127974
#	146017
#	163014
#	179541
#	193049
#	210925
#	223876
#	237558
#	254837
#	273188
#	289193
#	308824
#
# Disc length: 4300
#
# Revision: 3
# Processed by: cddbd v1.5.1PL0 Copyright (c) Steve Scherf et al.
# Submitted via: audiograbber 1.82.01
# Normalized: r2:DSETVAR1,TDELIM( - )
#
DISCID=3010ca14
DTITLE=Various Artist - Nejlepsi country na svete
DYEAR=1998
DGENRE=Country
TTITLE0=Alan Jackson - Little Bitty
TTITLE1=Blackhawk - Love and Gravity
TTITLE2=Lee Ann Womack - Never Again, Again
TTITLE3=Collin Raye - Not That Different
TTITLE4=Patty Loveless - Lonely Too Long
TTITLE5=Lonestar - Heartbroke Every Day
TTITLE6=Trisha Yearwood - Believe Me Baby (I Lied)
TTITLE7=Diamond Rio - That's What I Get For Lovin' You
TTITLE8=Mindy McCready featuring Lonestar's Richie McDonald - Maybe He'll Notice Her Now
TTITLE9=Rodney Crowell - Please Remember Me
TTITLE10=Alabama - It Works
TTITLE11=Brooks and Dunn - Brand New Man
TTITLE12=The Tractors - Baby Likes To Rock It
TTITLE13=Mary Chapin Carpenter - Let Me Into Your Heart
TTITLE14=Marty Stuart a Travis Tritt - Honky Tonkin's What I Do Best
TTITLE15=Pam Tillis - The River And The Highway
TTITLE16=Vince Gill - When Love Finds You
TTITLE17=Martina McBride - Phones Are Ringin' All Over Town
TTITLE18=Mavericks featuring Flaco Jimenez - All You Ever Do Is Bring Me Down
TTITLE19=Ricochet - Daddy's Money
EXTD=
EXTT0=
EXTT1=
EXTT2=
EXTT3=
EXTT4=
EXTT5=
EXTT6=
EXTT7=
EXTT8=
EXTT9=
EXTT10=
EXTT11=
EXTT12=
EXTT13=
EXTT14=
EXTT15=
EXTT16=
EXTT17=
EXTT18=
EXTT19=
PLAYORDER=
